<?xml version="1.0" standalone="no"?>
<!DOCTYPE svg PUBLIC "-//W3C//DTD SVG 20010904//EN"
 "http://www.w3.org/TR/2001/REC-SVG-20010904/DTD/svg10.dtd">
<svg version="1.0" xmlns="http://www.w3.org/2000/svg"
 width="500.000000pt" height="500.000000pt" viewBox="0 0 500.000000 500.000000"
 preserveAspectRatio="xMidYMid meet">

<g transform="translate(0.000000,500.000000) scale(0.100000,-0.100000)"
fill="#000000" stroke="none">
<path d="M2340 4990 c-610 -40 -1163 -292 -1601 -729 -442 -443 -689 -989
-728 -1612 -68 -1073 570 -2073 1579 -2473 570 -225 1250 -225 1820 0 1008
400 1644 1394 1579 2469 -37 622 -285 1172 -728 1616 -285 284 -603 482 -976
607 -291 98 -636 142 -945 122z m413 -315 c1010 -118 1804 -912 1922 -1923 78
-666 -152 -1326 -626 -1801 -181 -180 -350 -300 -584 -416 -841 -415 -1849
-248 -2514 416 -180 181 -302 352 -416 584 -152 309 -225 623 -225 969 0 1031
724 1920 1742 2141 203 44 480 56 701 30z"/>
<path d="M2594 3576 c-64 -28 -102 -110 -83 -181 9 -34 64 -93 362 -392 l351
-353 -930 0 -931 0 -33 -23 c-47 -31 -73 -80 -72 -135 0 -51 21 -85 72 -119
l33 -23 928 0 c511 0 929 -4 929 -8 0 -5 -153 -161 -340 -346 -188 -186 -348
-349 -357 -362 -26 -40 -20 -118 12 -160 29 -38 78 -64 120 -64 64 0 100 31
558 488 252 251 472 474 489 495 17 21 34 54 38 73 18 80 23 75 -503 603 -281
281 -506 499 -524 507 -40 17 -79 17 -119 0z"/>
</g>
</svg>
